
            <svg xmlns="http://www.w3.org/2000/svg" xmlns:cc="http://creativecommons.org/ns#" xmlns:rdf="http://www.w3.org/1999/02/22-rdf-syntax-ns#" version="1.1" width="1509.96875" height="536.9530029296875">
              <defs>
                <style type="text/css">svg {
            background-color: #fff; }
          
          .root text,
          .root tspan {
            font: 12px Arial; }
          
          .root path {
            fill-opacity: 0;
            stroke-width: 2px;
            stroke: #000; }
          
          .root circle {
            fill: #6b6659;
            stroke-width: 2px;
            stroke: #000; }
          
          .anchor text, .any-character text {
            fill: #fff; }
          
          .anchor rect, .any-character rect {
            fill: #6b6659; }
          
          .escape text, .charset-escape text, .literal text {
            fill: #000; }
          
          .escape rect, .charset-escape rect {
            fill: #bada55; }
          
          .literal rect {
            fill: #dae9e5; }
          
          .charset .charset-box {
            fill: #cbcbba; }
          
          .subexp .subexp-label tspan,
          .charset .charset-label tspan,
          .match-fragment .repeat-label tspan {
            font-size: 10px; }
          
          .repeat-label {
            cursor: help; }
          
          .subexp .subexp-label tspan,
          .charset .charset-label tspan {
            dominant-baseline: text-after-edge; }
          
          .subexp .subexp-box {
            stroke: #908c83;
            stroke-dasharray: 6,2;
            stroke-width: 2px;
            fill-opacity: 0; }
          
          .quote {
            fill: #908c83; }
          </style>
              </defs>
              <metadata>
                <rdf:rdf>
                  <cc:license rdf:about="http://creativecommons.org/licenses/by/3.0/">
                    <cc:permits rdf:resource="http://creativecommons.org/ns#Reproduction"></cc:permits>
                    <cc:permits rdf:resource="http://creativecommons.org/ns#Distribution"></cc:permits>
                    <cc:requires rdf:resource="http://creativecommons.org/ns#Notice"></cc:requires>
                    <cc:requires rdf:resource="http://creativecommons.org/ns#Attribution"></cc:requires>
                    <cc:permits rdf:resource="http://creativecommons.org/ns#DerivativeWorks"></cc:permits>
                  </cc:license>
                </rdf:rdf>
              </metadata>
            <desc>Created with Snap</desc><g transform="matrix(1,0,0,1,15,10.9062)" class="root"><g transform="matrix(1,0,0,1,10,0)" class="regexp match"><path d="M21.3125,257.5703H46.3125M183.6875,257.57026525878905H228.6875M382.859375,257.57029724121094H417.8594M1251.281275,257.5703010559082H1276.2813M1413.6563,257.57026525878905H1438.6563"></path><g transform="matrix(1,0,0,1,0,245.8203)" class="match-fragment literal"><g class="label"><rect width="21.3125" height="23.5" rx="3" ry="3"></rect><text x="0" y="0" transform="matrix(1,0,0,1,5,16.75)"><tspan class="quote">“</tspan><tspan>[</tspan><tspan class="quote">”</tspan></text></g></g><g transform="matrix(1,0,0,1,31.3125,162.789)" class="match-fragment"><path d="M0,94.78126525878906q10,0 10,-10v-75.78126525878906q0,-10 10,-10h127.375q10,0 10,10v75.78126525878906q0,10 10,10M15,94.78126525878906q-10,0 -10,10v63.78126525878906q0,10 10,10h137.375q10,0 10,-10v-63.78126525878906q0,-10 -10,-10M162.375,109.78126525878906l5,-5m-5,5l-5,-5"></path><g transform="matrix(1,0,0,1,15,10)" class="charset"><rect rx="3" ry="3" class="charset-box" transform="matrix(1,0,0,1,0,11)" width="137.375" height="147.56253051757812"></rect><text x="0" y="0" transform="matrix(1,0,0,1,0,11)" class="charset-label"><tspan>One of:</tspan></text><g transform="matrix(1,0,0,1,5,16)"><g transform="matrix(1,0,0,1,45.6797,0)" class="charset-escape"><g class="label"><rect width="36.015625" height="23.5" rx="3" ry="3"></rect><text x="0" y="0" transform="matrix(1,0,0,1,5,16.75)"><tspan>0x20</tspan></text></g></g><g transform="matrix(1,0,0,1,31.6797,28.5)" class="charset-escape"><g class="label"><rect width="64.015625" height="23.515625" rx="3" ry="3"></rect><text x="0" y="0" transform="matrix(1,0,0,1,5,16.7578)"><tspan>tab (0x09)</tspan></text></g></g><g transform="matrix(1,0,0,1,0,57.0156)" class="charset-escape"><g class="label"><rect width="127.375" height="23.515625" rx="3" ry="3"></rect><text x="0" y="0" transform="matrix(1,0,0,1,5,16.7578)"><tspan>carriage return (0x0D)</tspan></text></g></g><g transform="matrix(1,0,0,1,16.6641,85.5313)" class="charset-escape"><g class="label"><rect width="94.046875" height="23.515625" rx="3" ry="3"></rect><text x="0" y="0" transform="matrix(1,0,0,1,5,16.7578)"><tspan>line feed (0x0A)</tspan></text></g></g><g transform="matrix(1,0,0,1,13.6797,114.0469)" class="charset-escape"><g class="label"><rect width="100.015625" height="23.515625" rx="3" ry="3"></rect><text x="0" y="0" transform="matrix(1,0,0,1,5,16.7578)"><tspan>form feed (0x0C)</tspan></text></g></g></g></g></g><g transform="matrix(1,0,0,1,208.6875,160.4687)" class="match-fragment subexp"><rect rx="3" ry="3" class="subexp-box" transform="matrix(1,0,0,1,0,11.0938)" width="199.171875" height="182.01559448242188"></rect><text x="0" y="0" transform="matrix(1,0,0,1,0,11.0938)" class="subexp-label"><tspan>group #1</tspan></text><g transform="matrix(1,0,0,1,10,21.0938)" class="regexp match match-fragment"><path d="M10,76.00779724121094q-10,0 -10,10v66.00779724121094q0,10 10,10h154.171875q10,0 10,-10v-66.00779724121094q0,-10 -10,-10M174.171875,91.00779724121094l5,-5m-5,5l-5,-5"></path><g transform="matrix(1,0,0,1,10,0)" class="subexp regexp"><path d="M10,21.7578q0,-10 10,-10M144.171875,21.7578q0,-10 -10,-10M0,76.00779724121094c10,0 10,-5.492197241210931 20,-5.492197241210931M154.171875,76.00779724121094c-10,0 -10,-5.492197241210931 -20,-5.492197241210931M10,125.2656q0,10 10,10M144.171875,125.2656q0,10 -10,10M0,76.00779724121094q10,0 10,-10V21.7578M154.171875,76.00779724121094q-10,0 -10,-10V21.7578M0,76.00779724121094q10,0 10,10V125.2656M154.171875,76.00779724121094q-10,0 -10,10V125.2656"></path><g transform="matrix(1,0,0,1,20,0)" class="regexp-matches"><path d="M0,11.7578h0M114.171875,11.7578H114.171875M0,70.5156h34.0859M80.08590000000001,70.5156H114.171875M0,135.2656h17.4297M96.74224577636718,135.2656H114.171875"></path><g transform="matrix(1,0,0,1,0,0)" class="match"><path d="M21.3125,11.7578H31.3125"></path><g transform="matrix(1,0,0,1,0,0.0078)" class="match-fragment literal"><g class="label"><rect width="21.3125" height="23.5" rx="3" ry="3"></rect><text x="0" y="0" transform="matrix(1,0,0,1,5,16.75)"><tspan class="quote">“</tspan><tspan>\</tspan><tspan class="quote">”</tspan></text></g></g><g transform="matrix(1,0,0,1,31.3125,0)" class="match-fragment any-character"><g class="label"><rect width="82.859375" height="23.515625"></rect><text x="0" y="0" transform="matrix(1,0,0,1,5,16.7578)"><tspan>any character</tspan></text></g></g></g><g transform="matrix(1,0,0,1,34.0859,28.5156)" class="match match-fragment charset"><rect rx="3" ry="3" class="charset-box" transform="matrix(1,0,0,1,0,11)" width="46" height="62"></rect><text x="0" y="0" transform="matrix(1,0,0,1,0,11)" class="charset-label"><tspan>One of:</tspan></text><g transform="matrix(1,0,0,1,5,16)"><g transform="matrix(1,0,0,1,0,0)" class="charset-escape"><g class="label"><rect width="36" height="23.5" rx="3" ry="3"></rect><text x="0" y="0" transform="matrix(1,0,0,1,5,16.75)"><tspan>word</tspan></text></g></g><g transform="matrix(1,0,0,1,7.0078,28.5)" class="literal"><g class="label"><rect width="21.984375" height="23.5" rx="3" ry="3"></rect><text x="0" y="0" transform="matrix(1,0,0,1,5,16.75)"><tspan class="quote">“</tspan><tspan>-</tspan><tspan class="quote">”</tspan></text></g></g></g></g><g transform="matrix(1,0,0,1,17.4297,107.5156)" class="match match-fragment charset"><rect rx="3" ry="3" class="charset-box" transform="matrix(1,0,0,1,0,11)" width="79.31254577636719" height="33.5"></rect><text x="0" y="0" transform="matrix(1,0,0,1,0,11)" class="charset-label"><tspan>None of:</tspan></text><g transform="matrix(1,0,0,1,5,16)"><g transform="matrix(1,0,0,1,0,0)" class="charset-range"><text x="0" y="0" transform="matrix(1,0,0,1,22.9844,16)">-</text><g transform="matrix(1,0,0,1,0,0)" class="literal"><g class="label"><rect width="17.984375" height="23.5" rx="3" ry="3"></rect><text x="0" y="0" transform="matrix(1,0,0,1,5,16.75)"><tspan class="quote">“</tspan><tspan> </tspan><tspan class="quote">”</tspan></text></g></g><g transform="matrix(1,0,0,1,31.9688,0)" class="charset-escape"><g class="label"><rect width="37.34375" height="23.5" rx="3" ry="3"></rect><text x="0" y="0" transform="matrix(1,0,0,1,5,16.75)"><tspan>0xA0</tspan></text></g></g></g></g></g></g></g></g></g><g transform="matrix(1,0,0,1,417.8594,0)" class="match-fragment subexp regexp"><path d="M0,257.5703010559082c10,0 10,-2.953135797119131 20,-2.953135797119131M833.421875,257.5703010559082c-10,0 -10,-2.953135797119131 -20,-2.953135797119131M10,506.04679999999996q0,10 10,10M823.421875,506.04679999999996q0,10 -10,10M0,257.5703010559082q10,0 10,10V506.04679999999996M833.421875,257.5703010559082q-10,0 -10,10V506.04679999999996"></path><g transform="matrix(1,0,0,1,20,0)" class="regexp-matches"><path d="M0,254.61716525878907h15M793.4219055175781,254.61716525878907H793.421875M0,516.0468h391.7109M401.7109,516.0468H793.421875"></path><g transform="matrix(1,0,0,1,0,0)" class="match"><path d="M152.375,254.61716525878907H202.375M287.375,254.61719724121093H322.375M459.75,254.61716525878907H484.75"></path><g transform="matrix(1,0,0,1,0,159.8359)" class="match-fragment"><path d="M0,94.78126525878906q10,0 10,-10v-75.78126525878906q0,-10 10,-10h127.375q10,0 10,10v75.78126525878906q0,10 10,10M15,94.78126525878906q-10,0 -10,10v63.78126525878906q0,10 10,10h137.375q10,0 10,-10v-63.78126525878906q0,-10 -10,-10M162.375,109.78126525878906l5,-5m-5,5l-5,-5"></path><g transform="matrix(1,0,0,1,15,10)" class="charset"><rect rx="3" ry="3" class="charset-box" transform="matrix(1,0,0,1,0,11)" width="137.375" height="147.56253051757812"></rect><text x="0" y="0" transform="matrix(1,0,0,1,0,11)" class="charset-label"><tspan>One of:</tspan></text><g transform="matrix(1,0,0,1,5,16)"><g transform="matrix(1,0,0,1,45.6797,0)" class="charset-escape"><g class="label"><rect width="36.015625" height="23.5" rx="3" ry="3"></rect><text x="0" y="0" transform="matrix(1,0,0,1,5,16.75)"><tspan>0x20</tspan></text></g></g><g transform="matrix(1,0,0,1,31.6797,28.5)" class="charset-escape"><g class="label"><rect width="64.015625" height="23.515625" rx="3" ry="3"></rect><text x="0" y="0" transform="matrix(1,0,0,1,5,16.7578)"><tspan>tab (0x09)</tspan></text></g></g><g transform="matrix(1,0,0,1,0,57.0156)" class="charset-escape"><g class="label"><rect width="127.375" height="23.515625" rx="3" ry="3"></rect><text x="0" y="0" transform="matrix(1,0,0,1,5,16.7578)"><tspan>carriage return (0x0D)</tspan></text></g></g><g transform="matrix(1,0,0,1,16.6641,85.5313)" class="charset-escape"><g class="label"><rect width="94.046875" height="23.515625" rx="3" ry="3"></rect><text x="0" y="0" transform="matrix(1,0,0,1,5,16.7578)"><tspan>line feed (0x0A)</tspan></text></g></g><g transform="matrix(1,0,0,1,13.6797,114.0469)" class="charset-escape"><g class="label"><rect width="100.015625" height="23.515625" rx="3" ry="3"></rect><text x="0" y="0" transform="matrix(1,0,0,1,5,16.7578)"><tspan>form feed (0x0C)</tspan></text></g></g></g></g></g><g transform="matrix(1,0,0,1,177.375,124.5156)" class="match-fragment subexp"><rect rx="3" ry="3" class="subexp-box" transform="matrix(1,0,0,1,0,11.0938)" width="120" height="218.01559448242188"></rect><text x="0" y="0" transform="matrix(1,0,0,1,0,11.0938)" class="subexp-label"><tspan>group #2</tspan></text><g transform="matrix(1,0,0,1,10,21.0938)" class="regexp match"><path d="M50,109.00779724121094H75"></path><g transform="matrix(1,0,0,1,0,0)" class="match-fragment"><path d="M0,109.00779724121094q10,0 10,-10v-90.00779724121094q0,-10 10,-10h25q10,0 10,10v90.00779724121094q0,10 10,10"></path><g transform="matrix(1,0,0,1,15,10)" class="charset"><rect rx="3" ry="3" class="charset-box" transform="matrix(1,0,0,1,0,11)" width="35" height="176.01559448242188"></rect><text x="0" y="0" transform="matrix(1,0,0,1,0,11)" class="charset-label"><tspan>One of:</tspan></text><g transform="matrix(1,0,0,1,5,16)"><g transform="matrix(1,0,0,1,1.1719,0)" class="literal"><g class="label"><rect width="22.65625" height="23.5" rx="3" ry="3"></rect><text x="0" y="0" transform="matrix(1,0,0,1,5,16.75)"><tspan class="quote">“</tspan><tspan>*</tspan><tspan class="quote">”</tspan></text></g></g><g transform="matrix(1,0,0,1,0.6953,28.5)" class="literal"><g class="label"><rect width="23.609375" height="23.5" rx="3" ry="3"></rect><text x="0" y="0" transform="matrix(1,0,0,1,5,16.75)"><tspan class="quote">“</tspan><tspan>^</tspan><tspan class="quote">”</tspan></text></g></g><g transform="matrix(1,0,0,1,0.1719,57)" class="literal"><g class="label"><rect width="24.65625" height="23.5" rx="3" ry="3"></rect><text x="0" y="0" transform="matrix(1,0,0,1,5,16.75)"><tspan class="quote">“</tspan><tspan>$</tspan><tspan class="quote">”</tspan></text></g></g><g transform="matrix(1,0,0,1,1.9453,85.5)" class="literal"><g class="label"><rect width="21.109375" height="23.515625" rx="3" ry="3"></rect><text x="0" y="0" transform="matrix(1,0,0,1,5,16.7578)"><tspan class="quote">“</tspan><tspan>|</tspan><tspan class="quote">”</tspan></text></g></g><g transform="matrix(1,0,0,1,1.8438,114.0156)" class="literal"><g class="label"><rect width="21.3125" height="23.5" rx="3" ry="3"></rect><text x="0" y="0" transform="matrix(1,0,0,1,5,16.75)"><tspan class="quote">“</tspan><tspan>!</tspan><tspan class="quote">”</tspan></text></g></g><g transform="matrix(1,0,0,1,0,142.5156)" class="literal"><g class="label"><rect width="25" height="23.5" rx="3" ry="3"></rect><text x="0" y="0" transform="matrix(1,0,0,1,5,16.75)"><tspan class="quote">“</tspan><tspan>~</tspan><tspan class="quote">”</tspan></text></g></g></g></g></g><g transform="matrix(1,0,0,1,75,97.2578)" class="match-fragment literal"><g class="label"><rect width="25" height="23.5" rx="3" ry="3"></rect><text x="0" y="0" transform="matrix(1,0,0,1,5,16.75)"><tspan class="quote">“</tspan><tspan>=</tspan><tspan class="quote">”</tspan></text></g></g></g></g><g transform="matrix(1,0,0,1,307.375,159.8359)" class="match-fragment"><path d="M0,94.78126525878906q10,0 10,-10v-75.78126525878906q0,-10 10,-10h127.375q10,0 10,10v75.78126525878906q0,10 10,10M15,94.78126525878906q-10,0 -10,10v63.78126525878906q0,10 10,10h137.375q10,0 10,-10v-63.78126525878906q0,-10 -10,-10M162.375,109.78126525878906l5,-5m-5,5l-5,-5"></path><g transform="matrix(1,0,0,1,15,10)" class="charset"><rect rx="3" ry="3" class="charset-box" transform="matrix(1,0,0,1,0,11)" width="137.375" height="147.56253051757812"></rect><text x="0" y="0" transform="matrix(1,0,0,1,0,11)" class="charset-label"><tspan>One of:</tspan></text><g transform="matrix(1,0,0,1,5,16)"><g transform="matrix(1,0,0,1,45.6797,0)" class="charset-escape"><g class="label"><rect width="36.015625" height="23.5" rx="3" ry="3"></rect><text x="0" y="0" transform="matrix(1,0,0,1,5,16.75)"><tspan>0x20</tspan></text></g></g><g transform="matrix(1,0,0,1,31.6797,28.5)" class="charset-escape"><g class="label"><rect width="64.015625" height="23.515625" rx="3" ry="3"></rect><text x="0" y="0" transform="matrix(1,0,0,1,5,16.7578)"><tspan>tab (0x09)</tspan></text></g></g><g transform="matrix(1,0,0,1,0,57.0156)" class="charset-escape"><g class="label"><rect width="127.375" height="23.515625" rx="3" ry="3"></rect><text x="0" y="0" transform="matrix(1,0,0,1,5,16.7578)"><tspan>carriage return (0x0D)</tspan></text></g></g><g transform="matrix(1,0,0,1,16.6641,85.5313)" class="charset-escape"><g class="label"><rect width="94.046875" height="23.515625" rx="3" ry="3"></rect><text x="0" y="0" transform="matrix(1,0,0,1,5,16.7578)"><tspan>line feed (0x0A)</tspan></text></g></g><g transform="matrix(1,0,0,1,13.6797,114.0469)" class="charset-escape"><g class="label"><rect width="100.015625" height="23.515625" rx="3" ry="3"></rect><text x="0" y="0" transform="matrix(1,0,0,1,5,16.7578)"><tspan>form feed (0x0C)</tspan></text></g></g></g></g></g><g transform="matrix(1,0,0,1,484.75,0)" class="match-fragment subexp regexp"><path d="M10,91.8516q0,-10 10,-10M298.6719055175781,91.8516q0,-10 -10,-10M0,254.61719131469727c10,0 10,-14.24999131469724 20,-14.24999131469724M308.6719055175781,254.61719131469727c-10,0 -10,-14.24999131469724 -20,-14.24999131469724M10,404.13279724121094q0,10 10,10M298.6719055175781,404.13279724121094q0,10 -10,10M0,254.61719131469727q10,0 10,-10V91.8516M308.6719055175781,254.61719131469727q-10,0 -10,-10V91.8516M0,254.61719131469727q10,0 10,10V404.13279724121094M308.6719055175781,254.61719131469727q-10,0 -10,10V404.13279724121094"></path><g transform="matrix(1,0,0,1,20,0)" class="regexp-matches"><path d="M0,81.8516h1.9688M266.70315,81.8516H268.6719055175781M0,240.36720000000003h0M268.6719,240.36720000000003H268.6719055175781M0,414.13279724121094h54.75M208.921875,414.13279724121094H268.6719055175781"></path><g transform="matrix(1,0,0,1,1.9688,0)" class="match"><path d="M20.28125,81.8516H55.2813M209.453175,81.8516010559082H244.4531"></path><g transform="matrix(1,0,0,1,0,70.1016)" class="match-fragment literal"><g class="label"><rect width="20.28125" height="23.5" rx="3" ry="3"></rect><text x="0" y="0" transform="matrix(1,0,0,1,5,16.75)"><tspan class="quote">“</tspan><tspan>'</tspan><tspan class="quote">”</tspan></text></g></g><g transform="matrix(1,0,0,1,30.2813,0)" class="match-fragment subexp"><rect rx="3" ry="3" class="subexp-box" transform="matrix(1,0,0,1,0,11.0938)" width="204.171875" height="141.51559448242188"></rect><text x="0" y="0" transform="matrix(1,0,0,1,0,11.0938)" class="subexp-label"><tspan>group #3</tspan></text><g transform="matrix(1,0,0,1,10,21.0938)" class="regexp match match-fragment"><path d="M0,60.7578010559082q10,0 10,-10v-40.7578010559082q0,-10 10,-10h144.171875q10,0 10,10v40.7578010559082q0,10 10,10M15,60.7578010559082q-10,0 -10,10v40.7578010559082q0,10 10,10h154.171875q10,0 10,-10v-40.7578010559082q0,-10 -10,-10M179.171875,75.7578010559082l5,-5m-5,5l-5,-5"></path><g transform="matrix(1,0,0,1,15,10)" class="subexp regexp"><path d="M10,21.7578q0,-10 10,-10M144.171875,21.7578q0,-10 -10,-10M10,60.515600000000006q0,10 10,10M144.171875,60.515600000000006q0,10 -10,10M0,50.7578010559082q10,0 10,-10V21.7578M154.171875,50.7578010559082q-10,0 -10,-10V21.7578M0,50.7578010559082q10,0 10,10V60.515600000000006M154.171875,50.7578010559082q-10,0 -10,10V60.515600000000006"></path><g transform="matrix(1,0,0,1,20,0)" class="regexp-matches"><path d="M0,11.7578h0M114.171875,11.7578H114.171875M0,70.5156h38.1875M75.984375,70.5156H114.171875"></path><g transform="matrix(1,0,0,1,0,0)" class="match"><path d="M21.3125,11.7578H31.3125"></path><g transform="matrix(1,0,0,1,0,0.0078)" class="match-fragment literal"><g class="label"><rect width="21.3125" height="23.5" rx="3" ry="3"></rect><text x="0" y="0" transform="matrix(1,0,0,1,5,16.75)"><tspan class="quote">“</tspan><tspan>\</tspan><tspan class="quote">”</tspan></text></g></g><g transform="matrix(1,0,0,1,31.3125,0)" class="match-fragment any-character"><g class="label"><rect width="82.859375" height="23.515625"></rect><text x="0" y="0" transform="matrix(1,0,0,1,5,16.7578)"><tspan>any character</tspan></text></g></g></g><g transform="matrix(1,0,0,1,38.1875,28.5156)" class="match match-fragment charset"><rect rx="3" ry="3" class="charset-box" transform="matrix(1,0,0,1,0,11)" width="37.796875" height="62"></rect><text x="0" y="0" transform="matrix(1,0,0,1,0,11)" class="charset-label"><tspan>None of:</tspan></text><g transform="matrix(1,0,0,1,8.2422,16)"><g transform="matrix(1,0,0,1,0,0)" class="literal"><g class="label"><rect width="21.3125" height="23.5" rx="3" ry="3"></rect><text x="0" y="0" transform="matrix(1,0,0,1,5,16.75)"><tspan class="quote">“</tspan><tspan>\</tspan><tspan class="quote">”</tspan></text></g></g><g transform="matrix(1,0,0,1,0.5156,28.5)" class="literal"><g class="label"><rect width="20.28125" height="23.5" rx="3" ry="3"></rect><text x="0" y="0" transform="matrix(1,0,0,1,5,16.75)"><tspan class="quote">“</tspan><tspan>'</tspan><tspan class="quote">”</tspan></text></g></g></g></g></g></g></g></g><g transform="matrix(1,0,0,1,244.4531,70.1016)" class="match-fragment literal"><g class="label"><rect width="20.28125" height="23.5" rx="3" ry="3"></rect><text x="0" y="0" transform="matrix(1,0,0,1,5,16.75)"><tspan class="quote">“</tspan><tspan>'</tspan><tspan class="quote">”</tspan></text></g></g></g><g transform="matrix(1,0,0,1,0,158.5156)" class="match"><path d="M22.25,81.8516H57.25M211.421875,81.8516010559082H246.4219"></path><g transform="matrix(1,0,0,1,0,70.1016)" class="match-fragment literal"><g class="label"><rect width="22.25" height="23.5" rx="3" ry="3"></rect><text x="0" y="0" transform="matrix(1,0,0,1,5,16.75)"><tspan class="quote">“</tspan><tspan>"</tspan><tspan class="quote">”</tspan></text></g></g><g transform="matrix(1,0,0,1,32.25,0)" class="match-fragment subexp"><rect rx="3" ry="3" class="subexp-box" transform="matrix(1,0,0,1,0,11.0938)" width="204.171875" height="141.51559448242188"></rect><text x="0" y="0" transform="matrix(1,0,0,1,0,11.0938)" class="subexp-label"><tspan>group #4</tspan></text><g transform="matrix(1,0,0,1,10,21.0938)" class="regexp match match-fragment"><path d="M0,60.7578010559082q10,0 10,-10v-40.7578010559082q0,-10 10,-10h144.171875q10,0 10,10v40.7578010559082q0,10 10,10M15,60.7578010559082q-10,0 -10,10v40.7578010559082q0,10 10,10h154.171875q10,0 10,-10v-40.7578010559082q0,-10 -10,-10M179.171875,75.7578010559082l5,-5m-5,5l-5,-5"></path><g transform="matrix(1,0,0,1,15,10)" class="subexp regexp"><path d="M10,21.7578q0,-10 10,-10M144.171875,21.7578q0,-10 -10,-10M10,60.515600000000006q0,10 10,10M144.171875,60.515600000000006q0,10 -10,10M0,50.7578010559082q10,0 10,-10V21.7578M154.171875,50.7578010559082q-10,0 -10,-10V21.7578M0,50.7578010559082q10,0 10,10V60.515600000000006M154.171875,50.7578010559082q-10,0 -10,10V60.515600000000006"></path><g transform="matrix(1,0,0,1,20,0)" class="regexp-matches"><path d="M0,11.7578h0M114.171875,11.7578H114.171875M0,70.5156h38.1875M75.984375,70.5156H114.171875"></path><g transform="matrix(1,0,0,1,0,0)" class="match"><path d="M21.3125,11.7578H31.3125"></path><g transform="matrix(1,0,0,1,0,0.0078)" class="match-fragment literal"><g class="label"><rect width="21.3125" height="23.5" rx="3" ry="3"></rect><text x="0" y="0" transform="matrix(1,0,0,1,5,16.75)"><tspan class="quote">“</tspan><tspan>\</tspan><tspan class="quote">”</tspan></text></g></g><g transform="matrix(1,0,0,1,31.3125,0)" class="match-fragment any-character"><g class="label"><rect width="82.859375" height="23.515625"></rect><text x="0" y="0" transform="matrix(1,0,0,1,5,16.7578)"><tspan>any character</tspan></text></g></g></g><g transform="matrix(1,0,0,1,38.1875,28.5156)" class="match match-fragment charset"><rect rx="3" ry="3" class="charset-box" transform="matrix(1,0,0,1,0,11)" width="37.796875" height="62"></rect><text x="0" y="0" transform="matrix(1,0,0,1,0,11)" class="charset-label"><tspan>None of:</tspan></text><g transform="matrix(1,0,0,1,7.7734,16)"><g transform="matrix(1,0,0,1,0.4688,0)" class="literal"><g class="label"><rect width="21.3125" height="23.5" rx="3" ry="3"></rect><text x="0" y="0" transform="matrix(1,0,0,1,5,16.75)"><tspan class="quote">“</tspan><tspan>\</tspan><tspan class="quote">”</tspan></text></g></g><g transform="matrix(1,0,0,1,0,28.5)" class="literal"><g class="label"><rect width="22.25" height="23.5" rx="3" ry="3"></rect><text x="0" y="0" transform="matrix(1,0,0,1,5,16.75)"><tspan class="quote">“</tspan><tspan>"</tspan><tspan class="quote">”</tspan></text></g></g></g></g></g></g></g></g><g transform="matrix(1,0,0,1,246.4219,70.1016)" class="match-fragment literal"><g class="label"><rect width="22.25" height="23.5" rx="3" ry="3"></rect><text x="0" y="0" transform="matrix(1,0,0,1,5,16.75)"><tspan class="quote">“</tspan><tspan>"</tspan><tspan class="quote">”</tspan></text></g></g></g><g transform="matrix(1,0,0,1,34.75,317.0312)" class="match match-fragment subexp"><rect rx="3" ry="3" class="subexp-box" transform="matrix(1,0,0,1,0,11.0938)" width="199.171875" height="182.01559448242188"></rect><text x="0" y="0" transform="matrix(1,0,0,1,0,11.0938)" class="subexp-label"><tspan>group #5</tspan></text><g transform="matrix(1,0,0,1,10,21.0938)" class="regexp match match-fragment"><path d="M10,76.00779724121094q-10,0 -10,10v66.00779724121094q0,10 10,10h154.171875q10,0 10,-10v-66.00779724121094q0,-10 -10,-10M174.171875,91.00779724121094l5,-5m-5,5l-5,-5"></path><g transform="matrix(1,0,0,1,10,0)" class="subexp regexp"><path d="M10,21.7578q0,-10 10,-10M144.171875,21.7578q0,-10 -10,-10M0,76.00779724121094c10,0 10,-5.492197241210931 20,-5.492197241210931M154.171875,76.00779724121094c-10,0 -10,-5.492197241210931 -20,-5.492197241210931M10,125.2656q0,10 10,10M144.171875,125.2656q0,10 -10,10M0,76.00779724121094q10,0 10,-10V21.7578M154.171875,76.00779724121094q-10,0 -10,-10V21.7578M0,76.00779724121094q10,0 10,10V125.2656M154.171875,76.00779724121094q-10,0 -10,10V125.2656"></path><g transform="matrix(1,0,0,1,20,0)" class="regexp-matches"><path d="M0,11.7578h0M114.171875,11.7578H114.171875M0,70.5156h34.0859M80.08590000000001,70.5156H114.171875M0,135.2656h17.4297M96.74224577636718,135.2656H114.171875"></path><g transform="matrix(1,0,0,1,0,0)" class="match"><path d="M21.3125,11.7578H31.3125"></path><g transform="matrix(1,0,0,1,0,0.0078)" class="match-fragment literal"><g class="label"><rect width="21.3125" height="23.5" rx="3" ry="3"></rect><text x="0" y="0" transform="matrix(1,0,0,1,5,16.75)"><tspan class="quote">“</tspan><tspan>\</tspan><tspan class="quote">”</tspan></text></g></g><g transform="matrix(1,0,0,1,31.3125,0)" class="match-fragment any-character"><g class="label"><rect width="82.859375" height="23.515625"></rect><text x="0" y="0" transform="matrix(1,0,0,1,5,16.7578)"><tspan>any character</tspan></text></g></g></g><g transform="matrix(1,0,0,1,34.0859,28.5156)" class="match match-fragment charset"><rect rx="3" ry="3" class="charset-box" transform="matrix(1,0,0,1,0,11)" width="46" height="62"></rect><text x="0" y="0" transform="matrix(1,0,0,1,0,11)" class="charset-label"><tspan>One of:</tspan></text><g transform="matrix(1,0,0,1,5,16)"><g transform="matrix(1,0,0,1,0,0)" class="charset-escape"><g class="label"><rect width="36" height="23.5" rx="3" ry="3"></rect><text x="0" y="0" transform="matrix(1,0,0,1,5,16.75)"><tspan>word</tspan></text></g></g><g transform="matrix(1,0,0,1,7.0078,28.5)" class="literal"><g class="label"><rect width="21.984375" height="23.5" rx="3" ry="3"></rect><text x="0" y="0" transform="matrix(1,0,0,1,5,16.75)"><tspan class="quote">“</tspan><tspan>-</tspan><tspan class="quote">”</tspan></text></g></g></g></g><g transform="matrix(1,0,0,1,17.4297,107.5156)" class="match match-fragment charset"><rect rx="3" ry="3" class="charset-box" transform="matrix(1,0,0,1,0,11)" width="79.31254577636719" height="33.5"></rect><text x="0" y="0" transform="matrix(1,0,0,1,0,11)" class="charset-label"><tspan>None of:</tspan></text><g transform="matrix(1,0,0,1,5,16)"><g transform="matrix(1,0,0,1,0,0)" class="charset-range"><text x="0" y="0" transform="matrix(1,0,0,1,22.9844,16)">-</text><g transform="matrix(1,0,0,1,0,0)" class="literal"><g class="label"><rect width="17.984375" height="23.5" rx="3" ry="3"></rect><text x="0" y="0" transform="matrix(1,0,0,1,5,16.75)"><tspan class="quote">“</tspan><tspan> </tspan><tspan class="quote">”</tspan></text></g></g><g transform="matrix(1,0,0,1,31.9688,0)" class="charset-escape"><g class="label"><rect width="37.34375" height="23.5" rx="3" ry="3"></rect><text x="0" y="0" transform="matrix(1,0,0,1,5,16.75)"><tspan>0xA0</tspan></text></g></g></g></g></g></g></g></g></g></g></g></g><g transform="matrix(1,0,0,1,391.7109,516.0468)" class="match"><path></path><g><path d="M0,0h10" transform="matrix(1,0,0,1,0,0)"></path></g></g></g></g><g transform="matrix(1,0,0,1,1261.2813,162.789)" class="match-fragment"><path d="M0,94.78126525878906q10,0 10,-10v-75.78126525878906q0,-10 10,-10h127.375q10,0 10,10v75.78126525878906q0,10 10,10M15,94.78126525878906q-10,0 -10,10v63.78126525878906q0,10 10,10h137.375q10,0 10,-10v-63.78126525878906q0,-10 -10,-10M162.375,109.78126525878906l5,-5m-5,5l-5,-5"></path><g transform="matrix(1,0,0,1,15,10)" class="charset"><rect rx="3" ry="3" class="charset-box" transform="matrix(1,0,0,1,0,11)" width="137.375" height="147.56253051757812"></rect><text x="0" y="0" transform="matrix(1,0,0,1,0,11)" class="charset-label"><tspan>One of:</tspan></text><g transform="matrix(1,0,0,1,5,16)"><g transform="matrix(1,0,0,1,45.6797,0)" class="charset-escape"><g class="label"><rect width="36.015625" height="23.5" rx="3" ry="3"></rect><text x="0" y="0" transform="matrix(1,0,0,1,5,16.75)"><tspan>0x20</tspan></text></g></g><g transform="matrix(1,0,0,1,31.6797,28.5)" class="charset-escape"><g class="label"><rect width="64.015625" height="23.515625" rx="3" ry="3"></rect><text x="0" y="0" transform="matrix(1,0,0,1,5,16.7578)"><tspan>tab (0x09)</tspan></text></g></g><g transform="matrix(1,0,0,1,0,57.0156)" class="charset-escape"><g class="label"><rect width="127.375" height="23.515625" rx="3" ry="3"></rect><text x="0" y="0" transform="matrix(1,0,0,1,5,16.7578)"><tspan>carriage return (0x0D)</tspan></text></g></g><g transform="matrix(1,0,0,1,16.6641,85.5313)" class="charset-escape"><g class="label"><rect width="94.046875" height="23.515625" rx="3" ry="3"></rect><text x="0" y="0" transform="matrix(1,0,0,1,5,16.7578)"><tspan>line feed (0x0A)</tspan></text></g></g><g transform="matrix(1,0,0,1,13.6797,114.0469)" class="charset-escape"><g class="label"><rect width="100.015625" height="23.515625" rx="3" ry="3"></rect><text x="0" y="0" transform="matrix(1,0,0,1,5,16.7578)"><tspan>form feed (0x0C)</tspan></text></g></g></g></g></g><g transform="matrix(1,0,0,1,1438.6563,245.8203)" class="match-fragment literal"><g class="label"><rect width="21.3125" height="23.5" rx="3" ry="3"></rect><text x="0" y="0" transform="matrix(1,0,0,1,5,16.75)"><tspan class="quote">“</tspan><tspan>]</tspan><tspan class="quote">”</tspan></text></g></g></g><path d="M10,257.5703H0M1469.9688,257.5703H1479.96875"></path><circle cx="0" cy="257.5703" r="5"></circle><circle cx="1479.96875" cy="257.5703" r="5"></circle></g></svg>
          