
            <svg xmlns="http://www.w3.org/2000/svg" xmlns:cc="http://creativecommons.org/ns#" xmlns:rdf="http://www.w3.org/1999/02/22-rdf-syntax-ns#" version="1.1" width="187.375" height="179.56253051757812">
              <defs>
                <style type="text/css">svg {
            background-color: #fff; }
          
          .root text,
          .root tspan {
            font: 12px Arial; }
          
          .root path {
            fill-opacity: 0;
            stroke-width: 2px;
            stroke: #000; }
          
          .root circle {
            fill: #6b6659;
            stroke-width: 2px;
            stroke: #000; }
          
          .anchor text, .any-character text {
            fill: #fff; }
          
          .anchor rect, .any-character rect {
            fill: #6b6659; }
          
          .escape text, .charset-escape text, .literal text {
            fill: #000; }
          
          .escape rect, .charset-escape rect {
            fill: #bada55; }
          
          .literal rect {
            fill: #dae9e5; }
          
          .charset .charset-box {
            fill: #cbcbba; }
          
          .subexp .subexp-label tspan,
          .charset .charset-label tspan,
          .match-fragment .repeat-label tspan {
            font-size: 10px; }
          
          .repeat-label {
            cursor: help; }
          
          .subexp .subexp-label tspan,
          .charset .charset-label tspan {
            dominant-baseline: text-after-edge; }
          
          .subexp .subexp-box {
            stroke: #908c83;
            stroke-dasharray: 6,2;
            stroke-width: 2px;
            fill-opacity: 0; }
          
          .quote {
            fill: #908c83; }
          </style>
              </defs>
              <metadata>
                <rdf:rdf>
                  <cc:license rdf:about="http://creativecommons.org/licenses/by/3.0/">
                    <cc:permits rdf:resource="http://creativecommons.org/ns#Reproduction"></cc:permits>
                    <cc:permits rdf:resource="http://creativecommons.org/ns#Distribution"></cc:permits>
                    <cc:requires rdf:resource="http://creativecommons.org/ns#Notice"></cc:requires>
                    <cc:requires rdf:resource="http://creativecommons.org/ns#Attribution"></cc:requires>
                    <cc:permits rdf:resource="http://creativecommons.org/ns#DerivativeWorks"></cc:permits>
                  </cc:license>
                </rdf:rdf>
              </metadata>
            <desc>Created with Snap</desc><g transform="matrix(1,0,0,1,15,11)" class="root"><g transform="matrix(1,0,0,1,10,0)" class="regexp match match-fragment charset"><rect rx="3" ry="3" class="charset-box" transform="matrix(1,0,0,1,0,11)" width="137.375" height="147.56253051757812"></rect><text x="0" y="0" transform="matrix(1,0,0,1,0,11)" class="charset-label"><tspan>One of:</tspan></text><g transform="matrix(1,0,0,1,5,16)"><g transform="matrix(1,0,0,1,45.6797,0)" class="charset-escape"><g class="label"><rect width="36.015625" height="23.5" rx="3" ry="3"></rect><text x="0" y="0" transform="matrix(1,0,0,1,5,16.75)"><tspan>0x20</tspan></text></g></g><g transform="matrix(1,0,0,1,31.6797,28.5)" class="charset-escape"><g class="label"><rect width="64.015625" height="23.515625" rx="3" ry="3"></rect><text x="0" y="0" transform="matrix(1,0,0,1,5,16.7578)"><tspan>tab (0x09)</tspan></text></g></g><g transform="matrix(1,0,0,1,0,57.0156)" class="charset-escape"><g class="label"><rect width="127.375" height="23.515625" rx="3" ry="3"></rect><text x="0" y="0" transform="matrix(1,0,0,1,5,16.7578)"><tspan>carriage return (0x0D)</tspan></text></g></g><g transform="matrix(1,0,0,1,16.6641,85.5313)" class="charset-escape"><g class="label"><rect width="94.046875" height="23.515625" rx="3" ry="3"></rect><text x="0" y="0" transform="matrix(1,0,0,1,5,16.7578)"><tspan>line feed (0x0A)</tspan></text></g></g><g transform="matrix(1,0,0,1,13.6797,114.0469)" class="charset-escape"><g class="label"><rect width="100.015625" height="23.515625" rx="3" ry="3"></rect><text x="0" y="0" transform="matrix(1,0,0,1,5,16.7578)"><tspan>form feed (0x0C)</tspan></text></g></g></g></g><path d="M10,84.78126525878906H0M147.375,84.78126525878906H157.375"></path><circle cx="0" cy="84.78126525878906" r="5"></circle><circle cx="157.375" cy="84.78126525878906" r="5"></circle></g></svg>
          